<svg width="34" height="34" viewBox="0 0 34 34" fill="none" xmlns="http://www.w3.org/2000/svg">
<path fill-rule="evenodd" clip-rule="evenodd" d="M17 0C7.61136 0 0 7.61136 0 17C0 26.3886 7.61136 34 17 34C26.3886 34 34 26.3886 34 17C34 7.61136 26.3886 0 17 0ZM18.5455 23.1818C18.5455 23.5917 18.3826 23.9848 18.0928 24.2746C17.803 24.5644 17.4099 24.7273 17 24.7273C16.5901 24.7273 16.197 24.5644 15.9072 24.2746C15.6174 23.9848 15.4545 23.5917 15.4545 23.1818V18.5455H10.8182C10.4083 18.5455 10.0152 18.3826 9.72538 18.0928C9.43555 17.803 9.27273 17.4099 9.27273 17C9.27273 16.5901 9.43555 16.197 9.72538 15.9072C10.0152 15.6174 10.4083 15.4545 10.8182 15.4545H15.4545V10.8182C15.4545 10.4083 15.6174 10.0152 15.9072 9.72538C16.197 9.43555 16.5901 9.27273 17 9.27273C17.4099 9.27273 17.803 9.43555 18.0928 9.72538C18.3826 10.0152 18.5455 10.4083 18.5455 10.8182V15.4545H23.1818C23.5917 15.4545 23.9848 15.6174 24.2746 15.9072C24.5644 16.197 24.7273 16.5901 24.7273 17C24.7273 17.4099 24.5644 17.803 24.2746 18.0928C23.9848 18.3826 23.5917 18.5455 23.1818 18.5455H18.5455V23.1818Z" fill="white"/>
</svg>
