<svg width="10" height="18" viewBox="0 0 10 18" fill="none" xmlns="http://www.w3.org/2000/svg">
<path d="M3.24594 8.72645L9.5605 15.041C9.68234 15.1587 9.77952 15.2995 9.84638 15.4551C9.91324 15.6107 9.94843 15.7781 9.9499 15.9475C9.95137 16.1169 9.9191 16.2849 9.85495 16.4416C9.79081 16.5984 9.69609 16.7408 9.57631 16.8606C9.45654 16.9804 9.31411 17.0751 9.15733 17.1393C9.00056 17.2034 8.83258 17.2357 8.66319 17.2342C8.49381 17.2327 8.32642 17.1975 8.17078 17.1307C8.01515 17.0638 7.87438 16.9667 7.75671 16.8448L0.540247 9.62835C0.301096 9.38913 0.166748 9.06471 0.166748 8.72645C0.166748 8.38819 0.301096 8.06378 0.540247 7.82456L7.75671 0.608095C7.9973 0.375722 8.31954 0.247142 8.65401 0.250048C8.98849 0.252955 9.30844 0.387115 9.54496 0.623635C9.78148 0.860154 9.91564 1.18011 9.91855 1.51458C9.92146 1.84906 9.79288 2.1713 9.5605 2.41189L3.24594 8.72645Z" fill="#122049"/>
</svg>
