<svg width="30" height="34" viewBox="0 0 30 34" fill="none" xmlns="http://www.w3.org/2000/svg">
<path d="M30 28.3333H8.62202e-06C-0.00225717 26.2226 0.442072 24.1352 1.30381 22.2084C2.16555 20.2815 3.4252 18.5588 5.00001 17.1533V10C5.00001 7.34784 6.05358 4.8043 7.92894 2.92893C9.80431 1.05357 12.3478 0 15 0C17.6522 0 20.1957 1.05357 22.0711 2.92893C23.9464 4.8043 25 7.34784 25 10V17.1533C26.5748 18.5588 27.8345 20.2815 28.6962 22.2084C29.5579 24.1352 30.0023 26.2226 30 28.3333ZM10.2833 30H19.7167C19.3723 30.9759 18.7338 31.8209 17.889 32.4187C17.0442 33.0164 16.0349 33.3374 15 33.3374C13.9652 33.3374 12.9558 33.0164 12.111 32.4187C11.2662 31.8209 10.6277 30.9759 10.2833 30Z" fill="#122049"/>
</svg>
