<svg width="10" height="18" viewBox="0 0 10 18" fill="none" xmlns="http://www.w3.org/2000/svg">
<path d="M6.86874 8.61979L0.447403 2.19845C0.2111 1.95379 0.0803453 1.6261 0.083301 1.28597C0.0862566 0.945836 0.222686 0.620472 0.463205 0.379953C0.703724 0.139434 1.02909 0.0030047 1.36922 4.9039e-05C1.70935 -0.00290662 2.03704 0.127848 2.2817 0.364151L9.62019 7.70264C9.86338 7.9459 10 8.2758 10 8.61979C10 8.96377 9.86338 9.29367 9.62019 9.53693L2.2817 16.8754C2.03704 17.1117 1.70935 17.2425 1.36922 17.2395C1.02909 17.2366 0.703724 17.1001 0.463205 16.8596C0.222686 16.6191 0.0862566 16.2937 0.083301 15.9536C0.0803453 15.6135 0.2111 15.2858 0.447403 15.0411L6.86874 8.61979Z" fill="#122049"/>
</svg>
